<svg width="450" height="60" viewBox="0 0 424 47" fill="none" xmlns="http://www.w3.org/2000/svg">
<path d="M36.6 0.559998V46H32.184V24.752H5.24V46H0.76V0.559998H5.24V20.784H32.184V0.559998H36.6ZM61.008 46.64C58.576 46.64 56.3573 46.192 54.352 45.296C52.3467 44.3573 50.5973 43.0987 49.104 41.52C47.6533 39.9413 46.5227 38.1067 45.712 36.016C44.9013 33.9253 44.496 31.728 44.496 29.424C44.496 27.0773 44.9013 24.8587 45.712 22.768C46.5653 20.6773 47.7173 18.8427 49.168 17.264C50.6613 15.6853 52.4107 14.4267 54.416 13.488C56.4213 12.5493 58.6187 12.08 61.008 12.08C63.3973 12.08 65.5947 12.5493 67.6 13.488C69.648 14.4267 71.3973 15.6853 72.848 17.264C74.3413 18.8427 75.4933 20.6773 76.304 22.768C77.1573 24.8587 77.584 27.0773 77.584 29.424C77.584 31.728 77.1787 33.9253 76.368 36.016C75.5573 38.1067 74.4053 39.9413 72.912 41.52C71.4613 43.0987 69.712 44.3573 67.664 45.296C65.6587 46.192 63.44 46.64 61.008 46.64ZM48.912 29.488C48.912 31.3653 49.232 33.1147 49.872 34.736C50.512 36.3147 51.3653 37.7227 52.432 38.96C53.5413 40.1547 54.8213 41.0933 56.272 41.776C57.7653 42.4587 59.344 42.8 61.008 42.8C62.672 42.8 64.2293 42.4587 65.68 41.776C67.1733 41.0507 68.4747 40.0907 69.584 38.896C70.6933 37.6587 71.568 36.2293 72.208 34.608C72.848 32.9867 73.168 31.2373 73.168 29.36C73.168 27.5253 72.848 25.7973 72.208 24.176C71.568 22.512 70.6933 21.0827 69.584 19.888C68.4747 18.6507 67.1733 17.6907 65.68 17.008C64.2293 16.2827 62.672 15.92 61.008 15.92C59.344 15.92 57.7867 16.2827 56.336 17.008C54.8853 17.6907 53.6053 18.6507 52.496 19.888C51.3867 21.1253 50.512 22.576 49.872 24.24C49.232 25.8613 48.912 27.6107 48.912 29.488ZM101.375 12.656C102.569 12.656 103.657 12.8693 104.639 13.296C105.663 13.7227 106.537 14.32 107.263 15.088C108.031 15.8133 108.607 16.6667 108.991 17.648C109.417 18.6293 109.631 19.696 109.631 20.848C109.631 21.616 109.524 22.384 109.311 23.152C109.14 23.92 108.863 24.6667 108.479 25.392C108.095 26.0747 107.604 26.7147 107.007 27.312C106.409 27.8667 105.705 28.3147 104.895 28.656C106.772 29.168 108.244 30.1493 109.311 31.6C110.377 33.0507 110.911 34.8 110.911 36.848C110.911 38.2133 110.655 39.4507 110.143 40.56C109.673 41.6693 108.991 42.6293 108.095 43.44C107.241 44.2507 106.217 44.8907 105.023 45.36C103.828 45.7867 102.527 46 101.119 46H85.0545V12.656H101.375ZM99.6465 27.376C101.396 27.376 102.783 26.8213 103.807 25.712C104.831 24.6027 105.343 23.1947 105.343 21.488C105.343 19.9947 104.916 18.6933 104.063 17.584C103.209 16.4747 101.887 15.92 100.095 15.92H89.2785V27.376H99.6465ZM100.671 42.736C101.567 42.736 102.377 42.5653 103.103 42.224C103.871 41.8827 104.511 41.4347 105.023 40.88C105.535 40.2827 105.94 39.6213 106.239 38.896C106.537 38.1707 106.687 37.4027 106.687 36.592C106.687 35.056 106.153 33.6907 105.087 32.496C104.063 31.3013 102.633 30.704 100.799 30.704H89.2785V42.736H100.671ZM132.571 46.64C130.139 46.64 127.92 46.192 125.915 45.296C123.909 44.3573 122.16 43.0987 120.667 41.52C119.216 39.9413 118.085 38.1067 117.275 36.016C116.464 33.9253 116.059 31.728 116.059 29.424C116.059 27.0773 116.464 24.8587 117.275 22.768C118.128 20.6773 119.28 18.8427 120.731 17.264C122.224 15.6853 123.973 14.4267 125.979 13.488C127.984 12.5493 130.181 12.08 132.571 12.08C134.96 12.08 137.157 12.5493 139.163 13.488C141.211 14.4267 142.96 15.6853 144.411 17.264C145.904 18.8427 147.056 20.6773 147.867 22.768C148.72 24.8587 149.147 27.0773 149.147 29.424C149.147 31.728 148.741 33.9253 147.931 36.016C147.12 38.1067 145.968 39.9413 144.475 41.52C143.024 43.0987 141.275 44.3573 139.227 45.296C137.221 46.192 135.003 46.64 132.571 46.64ZM120.475 29.488C120.475 31.3653 120.795 33.1147 121.435 34.736C122.075 36.3147 122.928 37.7227 123.995 38.96C125.104 40.1547 126.384 41.0933 127.835 41.776C129.328 42.4587 130.907 42.8 132.571 42.8C134.235 42.8 135.792 42.4587 137.243 41.776C138.736 41.0507 140.037 40.0907 141.147 38.896C142.256 37.6587 143.131 36.2293 143.771 34.608C144.411 32.9867 144.731 31.2373 144.731 29.36C144.731 27.5253 144.411 25.7973 143.771 24.176C143.131 22.512 142.256 21.0827 141.147 19.888C140.037 18.6507 138.736 17.6907 137.243 17.008C135.792 16.2827 134.235 15.92 132.571 15.92C130.907 15.92 129.349 16.2827 127.899 17.008C126.448 17.6907 125.168 18.6507 124.059 19.888C122.949 21.1253 122.075 22.576 121.435 24.24C120.795 25.8613 120.475 27.6107 120.475 29.488ZM170.825 46.64C168.393 46.64 166.153 46.192 164.105 45.296C162.1 44.3573 160.35 43.0987 158.857 41.52C157.364 39.8987 156.19 38.0427 155.337 35.952C154.526 33.8613 154.121 31.6213 154.121 29.232C154.121 26.8853 154.526 24.688 155.337 22.64C156.19 20.5493 157.342 18.736 158.793 17.2C160.286 15.6213 162.057 14.384 164.105 13.488C166.153 12.5493 168.372 12.08 170.761 12.08C173.193 12.08 175.412 12.5493 177.417 13.488C179.465 14.384 181.214 15.6213 182.665 17.2C184.116 18.7787 185.246 20.592 186.057 22.64C186.868 24.688 187.273 26.864 187.273 29.168C187.273 29.5093 187.273 29.8507 187.273 30.192C187.273 30.5333 187.252 30.768 187.209 30.896H158.665C158.793 32.688 159.198 34.352 159.881 35.888C160.606 37.3813 161.524 38.6827 162.633 39.792C163.742 40.9013 165.001 41.776 166.409 42.416C167.86 43.0133 169.396 43.312 171.017 43.312C172.084 43.312 173.15 43.1627 174.217 42.864C175.284 42.5653 176.265 42.16 177.161 41.648C178.057 41.136 178.868 40.5173 179.593 39.792C180.318 39.024 180.873 38.192 181.257 37.296L185.033 38.32C184.521 39.5573 183.796 40.688 182.857 41.712C181.918 42.6933 180.83 43.568 179.593 44.336C178.356 45.0613 176.99 45.616 175.497 46C174.004 46.4267 172.446 46.64 170.825 46.64ZM183.113 27.568C182.985 25.776 182.558 24.1547 181.833 22.704C181.15 21.2107 180.254 19.9307 179.145 18.864C178.078 17.7973 176.82 16.9653 175.369 16.368C173.961 15.7707 172.446 15.472 170.825 15.472C169.204 15.472 167.668 15.7707 166.217 16.368C164.766 16.9653 163.486 17.7973 162.377 18.864C161.31 19.9307 160.436 21.2107 159.753 22.704C159.113 24.1973 158.729 25.8187 158.601 27.568H183.113ZM247.1 0.559998V46H242.684V24.752H215.74V46H211.26V0.559998H215.74V20.784H242.684V0.559998H247.1ZM265.809 46.64C264.23 46.64 262.758 46.384 261.393 45.872C260.07 45.3173 258.897 44.5707 257.873 43.632C256.892 42.6933 256.124 41.6053 255.569 40.368C255.014 39.088 254.737 37.7227 254.737 36.272C254.737 34.8213 255.078 33.4773 255.761 32.24C256.444 31.0027 257.404 29.936 258.641 29.04C259.878 28.144 261.35 27.4613 263.057 26.992C264.764 26.48 266.641 26.224 268.689 26.224C270.396 26.224 272.124 26.3733 273.873 26.672C275.622 26.9707 277.18 27.3973 278.545 27.952V24.944C278.545 22 277.713 19.6747 276.049 17.968C274.385 16.2187 272.081 15.344 269.137 15.344C267.43 15.344 265.681 15.6853 263.889 16.368C262.097 17.0507 260.284 18.032 258.449 19.312L256.913 16.432C261.222 13.5307 265.404 12.08 269.457 12.08C273.638 12.08 276.924 13.2533 279.313 15.6C281.702 17.9467 282.897 21.1893 282.897 25.328V40.368C282.897 41.5627 283.43 42.16 284.497 42.16V46C283.772 46.128 283.217 46.192 282.833 46.192C281.724 46.192 280.849 45.9147 280.209 45.36C279.612 44.8053 279.292 44.0373 279.249 43.056L279.121 40.432C277.585 42.4373 275.644 43.9733 273.297 45.04C270.993 46.1067 268.497 46.64 265.809 46.64ZM266.833 43.312C269.094 43.312 271.164 42.8853 273.041 42.032C274.961 41.1787 276.412 40.048 277.393 38.64C277.777 38.256 278.054 37.8507 278.225 37.424C278.438 36.9547 278.545 36.528 278.545 36.144V30.704C277.094 30.1493 275.58 29.7227 274.001 29.424C272.465 29.1253 270.886 28.976 269.265 28.976C266.193 28.976 263.697 29.616 261.777 30.896C259.857 32.176 258.897 33.8613 258.897 35.952C258.897 36.976 259.089 37.936 259.473 38.832C259.9 39.728 260.454 40.5173 261.137 41.2C261.862 41.84 262.716 42.352 263.697 42.736C264.678 43.12 265.724 43.312 266.833 43.312ZM313.419 46H309.067V32.112C307.957 32.5387 306.805 32.8587 305.611 33.072C304.459 33.2427 302.901 33.328 300.939 33.328C298.933 33.328 297.248 33.0293 295.883 32.432C294.56 31.8347 293.472 31.024 292.619 30C291.765 28.976 291.147 27.76 290.763 26.352C290.421 24.9013 290.251 23.344 290.251 21.68V12.656H294.539V20.912C294.539 24.0693 295.157 26.3093 296.395 27.632C297.632 28.912 299.403 29.552 301.707 29.552C303.499 29.552 305.013 29.3813 306.251 29.04C307.488 28.656 308.427 28.208 309.067 27.696V12.656H313.419V46ZM331.497 46.64C329.918 46.64 328.446 46.384 327.081 45.872C325.758 45.3173 324.585 44.5707 323.561 43.632C322.579 42.6933 321.811 41.6053 321.257 40.368C320.702 39.088 320.424 37.7227 320.424 36.272C320.424 34.8213 320.766 33.4773 321.449 32.24C322.131 31.0027 323.091 29.936 324.329 29.04C325.566 28.144 327.038 27.4613 328.745 26.992C330.451 26.48 332.329 26.224 334.377 26.224C336.083 26.224 337.811 26.3733 339.561 26.672C341.31 26.9707 342.867 27.3973 344.233 27.952V24.944C344.233 22 343.401 19.6747 341.737 17.968C340.073 16.2187 337.769 15.344 334.825 15.344C333.118 15.344 331.369 15.6853 329.577 16.368C327.785 17.0507 325.971 18.032 324.137 19.312L322.601 16.432C326.91 13.5307 331.091 12.08 335.145 12.08C339.326 12.08 342.611 13.2533 345.001 15.6C347.39 17.9467 348.585 21.1893 348.585 25.328V40.368C348.585 41.5627 349.118 42.16 350.185 42.16V46C349.459 46.128 348.905 46.192 348.521 46.192C347.411 46.192 346.537 45.9147 345.897 45.36C345.299 44.8053 344.979 44.0373 344.937 43.056L344.809 40.432C343.273 42.4373 341.331 43.9733 338.985 45.04C336.681 46.1067 334.185 46.64 331.497 46.64ZM332.521 43.312C334.782 43.312 336.851 42.8853 338.729 42.032C340.649 41.1787 342.099 40.048 343.081 38.64C343.465 38.256 343.742 37.8507 343.913 37.424C344.126 36.9547 344.233 36.528 344.233 36.144V30.704C342.782 30.1493 341.267 29.7227 339.689 29.424C338.153 29.1253 336.574 28.976 334.953 28.976C331.881 28.976 329.385 29.616 327.465 30.896C325.545 32.176 324.585 33.8613 324.585 35.952C324.585 36.976 324.777 37.936 325.161 38.832C325.587 39.728 326.142 40.5173 326.825 41.2C327.55 41.84 328.403 42.352 329.385 42.736C330.366 43.12 331.411 43.312 332.521 43.312ZM353.634 42.352C354.829 42.2667 355.874 41.9467 356.77 41.392C357.666 40.7947 358.434 39.7493 359.074 38.256C359.757 36.72 360.333 34.6293 360.802 31.984C361.314 29.3387 361.805 25.904 362.274 21.68L363.234 12.656H382.818V46H378.53V16.112H367.266L366.37 23.536C365.815 27.9733 365.197 31.6427 364.514 34.544C363.831 37.4027 363.021 39.7067 362.082 41.456C361.186 43.1627 360.098 44.3787 358.818 45.104C357.538 45.7867 356.045 46.1707 354.338 46.256L353.634 42.352ZM406.696 46.64C404.264 46.64 402.045 46.192 400.04 45.296C398.034 44.3573 396.285 43.0987 394.792 41.52C393.341 39.9413 392.21 38.1067 391.4 36.016C390.589 33.9253 390.184 31.728 390.184 29.424C390.184 27.0773 390.589 24.8587 391.4 22.768C392.253 20.6773 393.405 18.8427 394.856 17.264C396.349 15.6853 398.098 14.4267 400.104 13.488C402.109 12.5493 404.306 12.08 406.696 12.08C409.085 12.08 411.282 12.5493 413.288 13.488C415.336 14.4267 417.085 15.6853 418.536 17.264C420.029 18.8427 421.181 20.6773 421.992 22.768C422.845 24.8587 423.272 27.0773 423.272 29.424C423.272 31.728 422.866 33.9253 422.056 36.016C421.245 38.1067 420.093 39.9413 418.6 41.52C417.149 43.0987 415.4 44.3573 413.352 45.296C411.346 46.192 409.128 46.64 406.696 46.64ZM394.6 29.488C394.6 31.3653 394.92 33.1147 395.56 34.736C396.2 36.3147 397.053 37.7227 398.12 38.96C399.229 40.1547 400.509 41.0933 401.96 41.776C403.453 42.4587 405.032 42.8 406.696 42.8C408.36 42.8 409.917 42.4587 411.368 41.776C412.861 41.0507 414.162 40.0907 415.272 38.896C416.381 37.6587 417.256 36.2293 417.896 34.608C418.536 32.9867 418.856 31.2373 418.856 29.36C418.856 27.5253 418.536 25.7973 417.896 24.176C417.256 22.512 416.381 21.0827 415.272 19.888C414.162 18.6507 412.861 17.6907 411.368 17.008C409.917 16.2827 408.36 15.92 406.696 15.92C405.032 15.92 403.474 16.2827 402.024 17.008C400.573 17.6907 399.293 18.6507 398.184 19.888C397.074 21.1253 396.2 22.576 395.56 24.24C394.92 25.8613 394.6 27.6107 394.6 29.488Z" fill="black"/>
</svg>
